<?xml version="1.0" ?>
<!-- Uploaded to: SVG Repo, www.svgrepo.com, Generator: SVG Repo Mixer Tools -->
<svg width="800px" height="800px" viewBox="0 0 117 117" version="1.1" xmlns="http://www.w3.org/2000/svg" xmlns:xlink="http://www.w3.org/1999/xlink">
<title/>
<desc/>
<defs/>
<g fill="none" fill-rule="evenodd" id="Page-1" stroke="none" stroke-width="1">
<g fill-rule="nonzero" id="volume">
<path d="M4.5,89.6 L31.5,89.6 C33.8,89.6 35.6,87.8 35.6,85.5 L35.6,84.1 L83.2,115.8 C83.9,116.3 84.7,116.5 85.5,116.5 C86.2,116.5 86.8,116.3 87.4,116 C88.7,115.3 89.6,113.9 89.6,112.4 L89.6,4.5 C89.6,3 88.8,1.6 87.4,0.9 C86.1,0.2 84.5,0.3 83.2,1.1 L35.6,32.9 L35.6,31.5 C35.6,29.2 33.8,27.4 31.5,27.4 L4.5,27.4 C2.2,27.4 0.4,29.2 0.4,31.5 L0.4,85.5 C0.4,87.7 2.3,89.6 4.5,89.6 Z M35.6,42.7 L81.4,12.2 L81.4,104.9 L35.6,74.3 L35.6,42.7 Z M8.6,35.6 L27.4,35.6 L27.4,40.5 L27.4,76.5 L27.4,81.4 L8.6,81.4 L8.6,35.6 Z" fill="#4A4A4A" id="Shape"/>
<path d="M112.5,27.4 C110.2,27.4 108.4,29.2 108.4,31.5 L108.4,85.5 C108.4,87.8 110.2,89.6 112.5,89.6 C114.8,89.6 116.6,87.8 116.6,85.5 L116.6,31.5 C116.6,29.3 114.7,27.4 112.5,27.4 Z" fill="#17AB13" id="Shape"/>
</g>
</g>
</svg>