<?xml version="1.0" ?>
<!-- Uploaded to: SVG Repo, www.svgrepo.com, Generator: SVG Repo Mixer Tools -->
<svg width="800px" height="800px" viewBox="0 0 117 117" version="1.1" xmlns="http://www.w3.org/2000/svg" xmlns:xlink="http://www.w3.org/1999/xlink">
<title/>
<desc/>
<defs/>
<g fill="none" fill-rule="evenodd" id="Page-1" stroke="none" stroke-width="1">
<g fill-rule="nonzero" id="left-arrow">
<path d="M58.5,116.6 C90.5,116.6 116.6,90.6 116.6,58.5 C116.6,26.4 90.6,0.5 58.5,0.5 C26.4,0.5 0.5,26.5 0.5,58.5 C0.5,90.5 26.5,116.6 58.5,116.6 Z M58.5,8.6 C86,8.6 108.4,31 108.4,58.5 C108.4,86 86,108.4 58.5,108.4 C31,108.4 8.6,86 8.6,58.5 C8.6,31 31,8.6 58.5,8.6 Z" fill="#4A4A4A" id="Shape"/>
<path d="M64,87.5 C64.8,88.3 65.8,88.7 66.9,88.7 C67.9,88.7 69,88.3 69.8,87.5 C71.4,85.9 71.4,83.3 69.8,81.7 L46.3,58.2 L69.8,34.7 C71.4,33.1 71.4,30.5 69.8,28.9 C68.2,27.3 65.6,27.3 64,28.9 L37.6,55.3 C36.8,56.1 36.4,57.1 36.4,58.2 C36.4,59.3 36.8,60.3 37.6,61.1 L64,87.5 Z" fill="#17AB13" id="Shape"/>
</g>
</g>
</svg>